G04 #@! TF.FileFunction,Legend,Top*
%FSLAX46Y46*%
G04 Gerber Fmt 4.6, Leading zero omitted, Abs format (unit mm)*
G04 Created by KiCad (PCBNEW 4.0.1-stable) date 2017 February 12, Sunday 16:29:12*
%MOMM*%
G01*
G04 APERTURE LIST*
%ADD10C,0.100000*%
%ADD11C,0.254000*%
%ADD12C,0.150000*%
%ADD13R,2.000000X2.400000*%
%ADD14R,1.598880X1.598880*%
%ADD15R,1.700000X1.900000*%
%ADD16R,1.950000X1.000000*%
G04 APERTURE END LIST*
D10*
D11*
X155175857Y-83983286D02*
X155357286Y-84043762D01*
X155417762Y-84104238D01*
X155478238Y-84225190D01*
X155478238Y-84406619D01*
X155417762Y-84527571D01*
X155357286Y-84588048D01*
X155236333Y-84648524D01*
X154752524Y-84648524D01*
X154752524Y-83378524D01*
X155175857Y-83378524D01*
X155296810Y-83439000D01*
X155357286Y-83499476D01*
X155417762Y-83620429D01*
X155417762Y-83741381D01*
X155357286Y-83862333D01*
X155296810Y-83922810D01*
X155175857Y-83983286D01*
X154752524Y-83983286D01*
X156203953Y-84648524D02*
X156083000Y-84588048D01*
X156022524Y-84467095D01*
X156022524Y-83378524D01*
X156687762Y-84648524D02*
X156687762Y-83801857D01*
X156687762Y-83378524D02*
X156627286Y-83439000D01*
X156687762Y-83499476D01*
X156748238Y-83439000D01*
X156687762Y-83378524D01*
X156687762Y-83499476D01*
X157292524Y-83801857D02*
X157292524Y-84648524D01*
X157292524Y-83922810D02*
X157353000Y-83862333D01*
X157473953Y-83801857D01*
X157655381Y-83801857D01*
X157776333Y-83862333D01*
X157836810Y-83983286D01*
X157836810Y-84648524D01*
X158441572Y-84648524D02*
X158441572Y-83378524D01*
X158562524Y-84164714D02*
X158925381Y-84648524D01*
X158925381Y-83801857D02*
X158441572Y-84285667D01*
X159348715Y-83801857D02*
X159651096Y-84648524D01*
X159953476Y-83801857D02*
X159651096Y-84648524D01*
X159530143Y-84950905D01*
X159469667Y-85011381D01*
X159348715Y-85071857D01*
X161828238Y-83983286D02*
X162009667Y-84043762D01*
X162070143Y-84104238D01*
X162130619Y-84225190D01*
X162130619Y-84406619D01*
X162070143Y-84527571D01*
X162009667Y-84588048D01*
X161888714Y-84648524D01*
X161404905Y-84648524D01*
X161404905Y-83378524D01*
X161828238Y-83378524D01*
X161949191Y-83439000D01*
X162009667Y-83499476D01*
X162070143Y-83620429D01*
X162070143Y-83741381D01*
X162009667Y-83862333D01*
X161949191Y-83922810D01*
X161828238Y-83983286D01*
X161404905Y-83983286D01*
X162856334Y-84648524D02*
X162735381Y-84588048D01*
X162674905Y-84527571D01*
X162614429Y-84406619D01*
X162614429Y-84043762D01*
X162674905Y-83922810D01*
X162735381Y-83862333D01*
X162856334Y-83801857D01*
X163037762Y-83801857D01*
X163158714Y-83862333D01*
X163219191Y-83922810D01*
X163279667Y-84043762D01*
X163279667Y-84406619D01*
X163219191Y-84527571D01*
X163158714Y-84588048D01*
X163037762Y-84648524D01*
X162856334Y-84648524D01*
X164368239Y-84648524D02*
X164368239Y-83983286D01*
X164307762Y-83862333D01*
X164186810Y-83801857D01*
X163944905Y-83801857D01*
X163823953Y-83862333D01*
X164368239Y-84588048D02*
X164247286Y-84648524D01*
X163944905Y-84648524D01*
X163823953Y-84588048D01*
X163763477Y-84467095D01*
X163763477Y-84346143D01*
X163823953Y-84225190D01*
X163944905Y-84164714D01*
X164247286Y-84164714D01*
X164368239Y-84104238D01*
X164973001Y-84648524D02*
X164973001Y-83801857D01*
X164973001Y-84043762D02*
X165033477Y-83922810D01*
X165093953Y-83862333D01*
X165214906Y-83801857D01*
X165335858Y-83801857D01*
X166303477Y-84648524D02*
X166303477Y-83378524D01*
X166303477Y-84588048D02*
X166182524Y-84648524D01*
X165940620Y-84648524D01*
X165819667Y-84588048D01*
X165759191Y-84527571D01*
X165698715Y-84406619D01*
X165698715Y-84043762D01*
X165759191Y-83922810D01*
X165819667Y-83862333D01*
X165940620Y-83801857D01*
X166182524Y-83801857D01*
X166303477Y-83862333D01*
X154480382Y-86680524D02*
X154480382Y-85833857D01*
X154480382Y-85954810D02*
X154540858Y-85894333D01*
X154661811Y-85833857D01*
X154843239Y-85833857D01*
X154964191Y-85894333D01*
X155024668Y-86015286D01*
X155024668Y-86680524D01*
X155024668Y-86015286D02*
X155085144Y-85894333D01*
X155206096Y-85833857D01*
X155387525Y-85833857D01*
X155508477Y-85894333D01*
X155568953Y-86015286D01*
X155568953Y-86680524D01*
X156718001Y-86680524D02*
X156718001Y-86015286D01*
X156657524Y-85894333D01*
X156536572Y-85833857D01*
X156294667Y-85833857D01*
X156173715Y-85894333D01*
X156718001Y-86620048D02*
X156597048Y-86680524D01*
X156294667Y-86680524D01*
X156173715Y-86620048D01*
X156113239Y-86499095D01*
X156113239Y-86378143D01*
X156173715Y-86257190D01*
X156294667Y-86196714D01*
X156597048Y-86196714D01*
X156718001Y-86136238D01*
X157867049Y-86680524D02*
X157867049Y-85410524D01*
X157867049Y-86620048D02*
X157746096Y-86680524D01*
X157504192Y-86680524D01*
X157383239Y-86620048D01*
X157322763Y-86559571D01*
X157262287Y-86438619D01*
X157262287Y-86075762D01*
X157322763Y-85954810D01*
X157383239Y-85894333D01*
X157504192Y-85833857D01*
X157746096Y-85833857D01*
X157867049Y-85894333D01*
X158955620Y-86620048D02*
X158834668Y-86680524D01*
X158592763Y-86680524D01*
X158471811Y-86620048D01*
X158411335Y-86499095D01*
X158411335Y-86015286D01*
X158471811Y-85894333D01*
X158592763Y-85833857D01*
X158834668Y-85833857D01*
X158955620Y-85894333D01*
X159016097Y-86015286D01*
X159016097Y-86136238D01*
X158411335Y-86257190D01*
X160528001Y-86680524D02*
X160528001Y-85410524D01*
X160528001Y-85894333D02*
X160648953Y-85833857D01*
X160890858Y-85833857D01*
X161011810Y-85894333D01*
X161072287Y-85954810D01*
X161132763Y-86075762D01*
X161132763Y-86438619D01*
X161072287Y-86559571D01*
X161011810Y-86620048D01*
X160890858Y-86680524D01*
X160648953Y-86680524D01*
X160528001Y-86620048D01*
X161556097Y-85833857D02*
X161858478Y-86680524D01*
X162160858Y-85833857D02*
X161858478Y-86680524D01*
X161737525Y-86982905D01*
X161677049Y-87043381D01*
X161556097Y-87103857D01*
X163551811Y-86317667D02*
X164156573Y-86317667D01*
X163430858Y-86680524D02*
X163854192Y-85410524D01*
X164277525Y-86680524D01*
X164700858Y-86680524D02*
X164700858Y-85833857D01*
X164700858Y-86075762D02*
X164761334Y-85954810D01*
X164821810Y-85894333D01*
X164942763Y-85833857D01*
X165063715Y-85833857D01*
X165487048Y-86680524D02*
X165487048Y-85833857D01*
X165487048Y-85954810D02*
X165547524Y-85894333D01*
X165668477Y-85833857D01*
X165849905Y-85833857D01*
X165970857Y-85894333D01*
X166031334Y-86015286D01*
X166031334Y-86680524D01*
X166031334Y-86015286D02*
X166091810Y-85894333D01*
X166212762Y-85833857D01*
X166394191Y-85833857D01*
X166515143Y-85894333D01*
X166575619Y-86015286D01*
X166575619Y-86680524D01*
D12*
X183143000Y-108188000D02*
X183143000Y-106188000D01*
X181093000Y-106188000D02*
X181093000Y-108188000D01*
X161278000Y-107264000D02*
X161278000Y-104564000D01*
X159778000Y-107264000D02*
X159778000Y-104564000D01*
X160678000Y-105764000D02*
X160428000Y-105764000D01*
X160428000Y-105764000D02*
X160578000Y-105914000D01*
X160178000Y-106014000D02*
X160878000Y-106014000D01*
X160528000Y-105664000D02*
X160528000Y-105314000D01*
X160528000Y-106014000D02*
X160178000Y-105664000D01*
X160178000Y-105664000D02*
X160878000Y-105664000D01*
X160878000Y-105664000D02*
X160528000Y-106014000D01*
X181243000Y-87976000D02*
X181243000Y-86776000D01*
X182993000Y-86776000D02*
X182993000Y-87976000D01*
X181243000Y-97374000D02*
X181243000Y-96174000D01*
X182993000Y-96174000D02*
X182993000Y-97374000D01*
X159907000Y-90516000D02*
X159907000Y-89316000D01*
X161657000Y-89316000D02*
X161657000Y-90516000D01*
X169629000Y-95215000D02*
X169629000Y-95265000D01*
X173779000Y-95215000D02*
X173779000Y-95360000D01*
X173779000Y-100365000D02*
X173779000Y-100220000D01*
X169629000Y-100365000D02*
X169629000Y-100220000D01*
X169629000Y-95215000D02*
X173779000Y-95215000D01*
X169629000Y-100365000D02*
X173779000Y-100365000D01*
X169629000Y-95265000D02*
X168229000Y-95265000D01*
X184251334Y-107545143D02*
X184203715Y-107592762D01*
X184060858Y-107640381D01*
X183965620Y-107640381D01*
X183822762Y-107592762D01*
X183727524Y-107497524D01*
X183679905Y-107402286D01*
X183632286Y-107211810D01*
X183632286Y-107068952D01*
X183679905Y-106878476D01*
X183727524Y-106783238D01*
X183822762Y-106688000D01*
X183965620Y-106640381D01*
X184060858Y-106640381D01*
X184203715Y-106688000D01*
X184251334Y-106735619D01*
X185203715Y-107640381D02*
X184632286Y-107640381D01*
X184918000Y-107640381D02*
X184918000Y-106640381D01*
X184822762Y-106783238D01*
X184727524Y-106878476D01*
X184632286Y-106926095D01*
X158039905Y-106116381D02*
X158039905Y-105116381D01*
X158278000Y-105116381D01*
X158420858Y-105164000D01*
X158516096Y-105259238D01*
X158563715Y-105354476D01*
X158611334Y-105544952D01*
X158611334Y-105687810D01*
X158563715Y-105878286D01*
X158516096Y-105973524D01*
X158420858Y-106068762D01*
X158278000Y-106116381D01*
X158039905Y-106116381D01*
X159563715Y-106116381D02*
X158992286Y-106116381D01*
X159278000Y-106116381D02*
X159278000Y-105116381D01*
X159182762Y-105259238D01*
X159087524Y-105354476D01*
X158992286Y-105402095D01*
X184051334Y-87828381D02*
X183718000Y-87352190D01*
X183479905Y-87828381D02*
X183479905Y-86828381D01*
X183860858Y-86828381D01*
X183956096Y-86876000D01*
X184003715Y-86923619D01*
X184051334Y-87018857D01*
X184051334Y-87161714D01*
X184003715Y-87256952D01*
X183956096Y-87304571D01*
X183860858Y-87352190D01*
X183479905Y-87352190D01*
X185003715Y-87828381D02*
X184432286Y-87828381D01*
X184718000Y-87828381D02*
X184718000Y-86828381D01*
X184622762Y-86971238D01*
X184527524Y-87066476D01*
X184432286Y-87114095D01*
X184051334Y-97226381D02*
X183718000Y-96750190D01*
X183479905Y-97226381D02*
X183479905Y-96226381D01*
X183860858Y-96226381D01*
X183956096Y-96274000D01*
X184003715Y-96321619D01*
X184051334Y-96416857D01*
X184051334Y-96559714D01*
X184003715Y-96654952D01*
X183956096Y-96702571D01*
X183860858Y-96750190D01*
X183479905Y-96750190D01*
X184432286Y-96321619D02*
X184479905Y-96274000D01*
X184575143Y-96226381D01*
X184813239Y-96226381D01*
X184908477Y-96274000D01*
X184956096Y-96321619D01*
X185003715Y-96416857D01*
X185003715Y-96512095D01*
X184956096Y-96654952D01*
X184384667Y-97226381D01*
X185003715Y-97226381D01*
X162715334Y-90368381D02*
X162382000Y-89892190D01*
X162143905Y-90368381D02*
X162143905Y-89368381D01*
X162524858Y-89368381D01*
X162620096Y-89416000D01*
X162667715Y-89463619D01*
X162715334Y-89558857D01*
X162715334Y-89701714D01*
X162667715Y-89796952D01*
X162620096Y-89844571D01*
X162524858Y-89892190D01*
X162143905Y-89892190D01*
X163048667Y-89368381D02*
X163667715Y-89368381D01*
X163334381Y-89749333D01*
X163477239Y-89749333D01*
X163572477Y-89796952D01*
X163620096Y-89844571D01*
X163667715Y-89939810D01*
X163667715Y-90177905D01*
X163620096Y-90273143D01*
X163572477Y-90320762D01*
X163477239Y-90368381D01*
X163191524Y-90368381D01*
X163096286Y-90320762D01*
X163048667Y-90273143D01*
X170942095Y-93742381D02*
X170942095Y-94551905D01*
X170989714Y-94647143D01*
X171037333Y-94694762D01*
X171132571Y-94742381D01*
X171323048Y-94742381D01*
X171418286Y-94694762D01*
X171465905Y-94647143D01*
X171513524Y-94551905D01*
X171513524Y-93742381D01*
X172513524Y-94742381D02*
X171942095Y-94742381D01*
X172227809Y-94742381D02*
X172227809Y-93742381D01*
X172132571Y-93885238D01*
X172037333Y-93980476D01*
X171942095Y-94028095D01*
%LPC*%
D13*
X182118000Y-105188000D03*
X182118000Y-109188000D03*
D14*
X160528000Y-104614980D03*
X160528000Y-106713020D03*
D15*
X182118000Y-86026000D03*
X182118000Y-88726000D03*
X182118000Y-95424000D03*
X182118000Y-98124000D03*
X160782000Y-88566000D03*
X160782000Y-91266000D03*
D16*
X169004000Y-95885000D03*
X169004000Y-97155000D03*
X169004000Y-98425000D03*
X169004000Y-99695000D03*
X174404000Y-99695000D03*
X174404000Y-98425000D03*
X174404000Y-97155000D03*
X174404000Y-95885000D03*
M02*
