G04 #@! TF.FileFunction,Copper,L1,Top,Signal*
%FSLAX46Y46*%
G04 Gerber Fmt 4.6, Leading zero omitted, Abs format (unit mm)*
G04 Created by KiCad (PCBNEW 4.0.1-stable) date 2017 February 12, Sunday 16:29:12*
%MOMM*%
G01*
G04 APERTURE LIST*
%ADD10C,0.100000*%
%ADD11R,1.600000X2.000000*%
%ADD12R,1.198880X1.198880*%
%ADD13R,1.300000X1.500000*%
%ADD14R,1.550000X0.600000*%
%ADD15C,0.685800*%
%ADD16C,0.254000*%
G04 APERTURE END LIST*
D10*
D11*
X182118000Y-105188000D03*
X182118000Y-109188000D03*
D12*
X160528000Y-104614980D03*
X160528000Y-106713020D03*
D13*
X182118000Y-86026000D03*
X182118000Y-88726000D03*
X182118000Y-95424000D03*
X182118000Y-98124000D03*
X160782000Y-88566000D03*
X160782000Y-91266000D03*
D14*
X169004000Y-95885000D03*
X169004000Y-97155000D03*
X169004000Y-98425000D03*
X169004000Y-99695000D03*
X174404000Y-99695000D03*
X174404000Y-98425000D03*
X174404000Y-97155000D03*
X174404000Y-95885000D03*
D15*
X171196000Y-103378000D03*
X166370000Y-100584000D03*
X174752000Y-92964000D03*
D16*
X182118000Y-98124000D02*
X179752000Y-98124000D01*
X179451000Y-98425000D02*
X174404000Y-98425000D01*
X179752000Y-98124000D02*
X179451000Y-98425000D01*
X169004000Y-97155000D02*
X170561000Y-97155000D01*
X170561000Y-97155000D02*
X171831000Y-98425000D01*
X171831000Y-98425000D02*
X174404000Y-98425000D01*
X182118000Y-98124000D02*
X182118000Y-104934000D01*
X182118000Y-104934000D02*
X182372000Y-105188000D01*
X160782000Y-91266000D02*
X160782000Y-104360980D01*
X160782000Y-104360980D02*
X160528000Y-104614980D01*
X169004000Y-99695000D02*
X167259000Y-99695000D01*
X167259000Y-99695000D02*
X166370000Y-100584000D01*
X174404000Y-95885000D02*
X174404000Y-93312000D01*
X174404000Y-93312000D02*
X174752000Y-92964000D01*
X174404000Y-95885000D02*
X176657000Y-95885000D01*
X179832000Y-86106000D02*
X182038000Y-86106000D01*
X179324000Y-86614000D02*
X179832000Y-86106000D01*
X179324000Y-93218000D02*
X179324000Y-86614000D01*
X176657000Y-95885000D02*
X179324000Y-93218000D01*
X182038000Y-86106000D02*
X182118000Y-86026000D01*
X182118000Y-95424000D02*
X179912000Y-95424000D01*
X178181000Y-97155000D02*
X174404000Y-97155000D01*
X179912000Y-95424000D02*
X178181000Y-97155000D01*
X182118000Y-88726000D02*
X182118000Y-95424000D01*
X169004000Y-98425000D02*
X166751000Y-98425000D01*
X163242000Y-88566000D02*
X160782000Y-88566000D01*
X164846000Y-90170000D02*
X163242000Y-88566000D01*
X164846000Y-96520000D02*
X164846000Y-90170000D01*
X166751000Y-98425000D02*
X164846000Y-96520000D01*
G36*
X188520000Y-112320000D02*
X154380000Y-112320000D01*
X154380000Y-109473750D01*
X180683000Y-109473750D01*
X180683000Y-110314309D01*
X180779673Y-110547698D01*
X180958301Y-110726327D01*
X181191690Y-110823000D01*
X181832250Y-110823000D01*
X181991000Y-110664250D01*
X181991000Y-109315000D01*
X182245000Y-109315000D01*
X182245000Y-110664250D01*
X182403750Y-110823000D01*
X183044310Y-110823000D01*
X183277699Y-110726327D01*
X183456327Y-110547698D01*
X183553000Y-110314309D01*
X183553000Y-109473750D01*
X183394250Y-109315000D01*
X182245000Y-109315000D01*
X181991000Y-109315000D01*
X180841750Y-109315000D01*
X180683000Y-109473750D01*
X154380000Y-109473750D01*
X154380000Y-108061691D01*
X180683000Y-108061691D01*
X180683000Y-108902250D01*
X180841750Y-109061000D01*
X181991000Y-109061000D01*
X181991000Y-107711750D01*
X182245000Y-107711750D01*
X182245000Y-109061000D01*
X183394250Y-109061000D01*
X183553000Y-108902250D01*
X183553000Y-108061691D01*
X183456327Y-107828302D01*
X183277699Y-107649673D01*
X183044310Y-107553000D01*
X182403750Y-107553000D01*
X182245000Y-107711750D01*
X181991000Y-107711750D01*
X181832250Y-107553000D01*
X181191690Y-107553000D01*
X180958301Y-107649673D01*
X180779673Y-107828302D01*
X180683000Y-108061691D01*
X154380000Y-108061691D01*
X154380000Y-106998770D01*
X159293560Y-106998770D01*
X159293560Y-107438769D01*
X159390233Y-107672158D01*
X159568861Y-107850787D01*
X159802250Y-107947460D01*
X160242250Y-107947460D01*
X160401000Y-107788710D01*
X160401000Y-106840020D01*
X160655000Y-106840020D01*
X160655000Y-107788710D01*
X160813750Y-107947460D01*
X161253750Y-107947460D01*
X161487139Y-107850787D01*
X161665767Y-107672158D01*
X161762440Y-107438769D01*
X161762440Y-106998770D01*
X161603690Y-106840020D01*
X160655000Y-106840020D01*
X160401000Y-106840020D01*
X159452310Y-106840020D01*
X159293560Y-106998770D01*
X154380000Y-106998770D01*
X154380000Y-104015540D01*
X159281120Y-104015540D01*
X159281120Y-105214420D01*
X159325398Y-105449737D01*
X159464470Y-105665861D01*
X159472659Y-105671456D01*
X159390233Y-105753882D01*
X159293560Y-105987271D01*
X159293560Y-106427270D01*
X159452310Y-106586020D01*
X160401000Y-106586020D01*
X160401000Y-106566020D01*
X160655000Y-106566020D01*
X160655000Y-106586020D01*
X161603690Y-106586020D01*
X161762440Y-106427270D01*
X161762440Y-105987271D01*
X161665767Y-105753882D01*
X161583555Y-105671669D01*
X161723871Y-105466310D01*
X161774880Y-105214420D01*
X161774880Y-104015540D01*
X161730602Y-103780223D01*
X161591530Y-103564099D01*
X161544000Y-103531623D01*
X161544000Y-92642366D01*
X161667317Y-92619162D01*
X161883441Y-92480090D01*
X162028431Y-92267890D01*
X162079440Y-92016000D01*
X162079440Y-90516000D01*
X162035162Y-90280683D01*
X161896090Y-90064559D01*
X161683890Y-89919569D01*
X161670803Y-89916919D01*
X161883441Y-89780090D01*
X162028431Y-89567890D01*
X162077010Y-89328000D01*
X162926370Y-89328000D01*
X164084000Y-90485631D01*
X164084000Y-96520000D01*
X164142004Y-96811605D01*
X164307185Y-97058815D01*
X166212185Y-98963815D01*
X166459395Y-99128996D01*
X166699595Y-99176775D01*
X166270357Y-99606013D01*
X166176337Y-99605931D01*
X165816788Y-99754493D01*
X165541460Y-100029341D01*
X165392270Y-100388630D01*
X165391931Y-100777663D01*
X165540493Y-101137212D01*
X165815341Y-101412540D01*
X166174630Y-101561730D01*
X166563663Y-101562069D01*
X166923212Y-101413507D01*
X167198540Y-101138659D01*
X167347730Y-100779370D01*
X167347813Y-100683817D01*
X167574630Y-100457000D01*
X167780364Y-100457000D01*
X167977110Y-100591431D01*
X168229000Y-100642440D01*
X169779000Y-100642440D01*
X170014317Y-100598162D01*
X170230441Y-100459090D01*
X170375431Y-100246890D01*
X170426440Y-99995000D01*
X170426440Y-99980750D01*
X172994000Y-99980750D01*
X172994000Y-100121310D01*
X173090673Y-100354699D01*
X173269302Y-100533327D01*
X173502691Y-100630000D01*
X174118250Y-100630000D01*
X174277000Y-100471250D01*
X174277000Y-99822000D01*
X174531000Y-99822000D01*
X174531000Y-100471250D01*
X174689750Y-100630000D01*
X175305309Y-100630000D01*
X175538698Y-100533327D01*
X175717327Y-100354699D01*
X175814000Y-100121310D01*
X175814000Y-99980750D01*
X175655250Y-99822000D01*
X174531000Y-99822000D01*
X174277000Y-99822000D01*
X173152750Y-99822000D01*
X172994000Y-99980750D01*
X170426440Y-99980750D01*
X170426440Y-99395000D01*
X170382162Y-99159683D01*
X170318322Y-99060472D01*
X170375431Y-98976890D01*
X170426440Y-98725000D01*
X170426440Y-98125000D01*
X170420198Y-98091829D01*
X171292184Y-98963815D01*
X171509943Y-99109317D01*
X171539395Y-99128996D01*
X171831000Y-99187000D01*
X173027837Y-99187000D01*
X172994000Y-99268690D01*
X172994000Y-99409250D01*
X173152750Y-99568000D01*
X174277000Y-99568000D01*
X174277000Y-99548000D01*
X174531000Y-99548000D01*
X174531000Y-99568000D01*
X175655250Y-99568000D01*
X175814000Y-99409250D01*
X175814000Y-99268690D01*
X175780163Y-99187000D01*
X179451000Y-99187000D01*
X179742605Y-99128996D01*
X179989815Y-98963815D01*
X180067630Y-98886000D01*
X180822818Y-98886000D01*
X180864838Y-99109317D01*
X181003910Y-99325441D01*
X181216110Y-99470431D01*
X181356000Y-99498759D01*
X181356000Y-103540560D01*
X181318000Y-103540560D01*
X181082683Y-103584838D01*
X180866559Y-103723910D01*
X180721569Y-103936110D01*
X180670560Y-104188000D01*
X180670560Y-106188000D01*
X180714838Y-106423317D01*
X180853910Y-106639441D01*
X181066110Y-106784431D01*
X181318000Y-106835440D01*
X182918000Y-106835440D01*
X183153317Y-106791162D01*
X183369441Y-106652090D01*
X183514431Y-106439890D01*
X183565440Y-106188000D01*
X183565440Y-104188000D01*
X183521162Y-103952683D01*
X183382090Y-103736559D01*
X183169890Y-103591569D01*
X182918000Y-103540560D01*
X182880000Y-103540560D01*
X182880000Y-99500366D01*
X183003317Y-99477162D01*
X183219441Y-99338090D01*
X183364431Y-99125890D01*
X183415440Y-98874000D01*
X183415440Y-97374000D01*
X183371162Y-97138683D01*
X183232090Y-96922559D01*
X183019890Y-96777569D01*
X183006803Y-96774919D01*
X183219441Y-96638090D01*
X183364431Y-96425890D01*
X183415440Y-96174000D01*
X183415440Y-94674000D01*
X183371162Y-94438683D01*
X183232090Y-94222559D01*
X183019890Y-94077569D01*
X182880000Y-94049241D01*
X182880000Y-90102366D01*
X183003317Y-90079162D01*
X183219441Y-89940090D01*
X183364431Y-89727890D01*
X183415440Y-89476000D01*
X183415440Y-87976000D01*
X183371162Y-87740683D01*
X183232090Y-87524559D01*
X183019890Y-87379569D01*
X183006803Y-87376919D01*
X183219441Y-87240090D01*
X183364431Y-87027890D01*
X183415440Y-86776000D01*
X183415440Y-85276000D01*
X183371162Y-85040683D01*
X183232090Y-84824559D01*
X183019890Y-84679569D01*
X182768000Y-84628560D01*
X181468000Y-84628560D01*
X181232683Y-84672838D01*
X181016559Y-84811910D01*
X180871569Y-85024110D01*
X180820560Y-85276000D01*
X180820560Y-85344000D01*
X179832000Y-85344000D01*
X179540395Y-85402004D01*
X179293184Y-85567185D01*
X178785185Y-86075185D01*
X178620004Y-86322395D01*
X178562000Y-86614000D01*
X178562000Y-92902369D01*
X176341370Y-95123000D01*
X175627636Y-95123000D01*
X175430890Y-94988569D01*
X175179000Y-94937560D01*
X175166000Y-94937560D01*
X175166000Y-93851028D01*
X175305212Y-93793507D01*
X175580540Y-93518659D01*
X175729730Y-93159370D01*
X175730069Y-92770337D01*
X175581507Y-92410788D01*
X175306659Y-92135460D01*
X174947370Y-91986270D01*
X174558337Y-91985931D01*
X174198788Y-92134493D01*
X173923460Y-92409341D01*
X173774270Y-92768630D01*
X173774147Y-92909432D01*
X173700004Y-93020395D01*
X173642000Y-93312000D01*
X173642000Y-94937560D01*
X173629000Y-94937560D01*
X173393683Y-94981838D01*
X173177559Y-95120910D01*
X173032569Y-95333110D01*
X172981560Y-95585000D01*
X172981560Y-96185000D01*
X173025838Y-96420317D01*
X173089678Y-96519528D01*
X173032569Y-96603110D01*
X172981560Y-96855000D01*
X172981560Y-97455000D01*
X173020698Y-97663000D01*
X172146631Y-97663000D01*
X171099815Y-96616185D01*
X170955864Y-96520000D01*
X170852605Y-96451004D01*
X170561000Y-96393000D01*
X170380163Y-96393000D01*
X170414000Y-96311310D01*
X170414000Y-96170750D01*
X170255250Y-96012000D01*
X169131000Y-96012000D01*
X169131000Y-96032000D01*
X168877000Y-96032000D01*
X168877000Y-96012000D01*
X167752750Y-96012000D01*
X167594000Y-96170750D01*
X167594000Y-96311310D01*
X167683806Y-96528122D01*
X167632569Y-96603110D01*
X167581560Y-96855000D01*
X167581560Y-97455000D01*
X167620698Y-97663000D01*
X167066630Y-97663000D01*
X165608000Y-96204370D01*
X165608000Y-95458690D01*
X167594000Y-95458690D01*
X167594000Y-95599250D01*
X167752750Y-95758000D01*
X168877000Y-95758000D01*
X168877000Y-95108750D01*
X169131000Y-95108750D01*
X169131000Y-95758000D01*
X170255250Y-95758000D01*
X170414000Y-95599250D01*
X170414000Y-95458690D01*
X170317327Y-95225301D01*
X170138698Y-95046673D01*
X169905309Y-94950000D01*
X169289750Y-94950000D01*
X169131000Y-95108750D01*
X168877000Y-95108750D01*
X168718250Y-94950000D01*
X168102691Y-94950000D01*
X167869302Y-95046673D01*
X167690673Y-95225301D01*
X167594000Y-95458690D01*
X165608000Y-95458690D01*
X165608000Y-90170000D01*
X165589931Y-90079162D01*
X165549997Y-89878396D01*
X165384816Y-89631185D01*
X163780815Y-88027185D01*
X163686252Y-87964000D01*
X163533605Y-87862004D01*
X163242000Y-87804000D01*
X162077182Y-87804000D01*
X162035162Y-87580683D01*
X161896090Y-87364559D01*
X161683890Y-87219569D01*
X161432000Y-87168560D01*
X160132000Y-87168560D01*
X159896683Y-87212838D01*
X159680559Y-87351910D01*
X159535569Y-87564110D01*
X159484560Y-87816000D01*
X159484560Y-89316000D01*
X159528838Y-89551317D01*
X159667910Y-89767441D01*
X159880110Y-89912431D01*
X159893197Y-89915081D01*
X159680559Y-90051910D01*
X159535569Y-90264110D01*
X159484560Y-90516000D01*
X159484560Y-92016000D01*
X159528838Y-92251317D01*
X159667910Y-92467441D01*
X159880110Y-92612431D01*
X160020000Y-92640759D01*
X160020000Y-103368100D01*
X159928560Y-103368100D01*
X159693243Y-103412378D01*
X159477119Y-103551450D01*
X159332129Y-103763650D01*
X159281120Y-104015540D01*
X154380000Y-104015540D01*
X154380000Y-83260000D01*
X188520000Y-83260000D01*
X188520000Y-112320000D01*
X188520000Y-112320000D01*
G37*
X188520000Y-112320000D02*
X154380000Y-112320000D01*
X154380000Y-109473750D01*
X180683000Y-109473750D01*
X180683000Y-110314309D01*
X180779673Y-110547698D01*
X180958301Y-110726327D01*
X181191690Y-110823000D01*
X181832250Y-110823000D01*
X181991000Y-110664250D01*
X181991000Y-109315000D01*
X182245000Y-109315000D01*
X182245000Y-110664250D01*
X182403750Y-110823000D01*
X183044310Y-110823000D01*
X183277699Y-110726327D01*
X183456327Y-110547698D01*
X183553000Y-110314309D01*
X183553000Y-109473750D01*
X183394250Y-109315000D01*
X182245000Y-109315000D01*
X181991000Y-109315000D01*
X180841750Y-109315000D01*
X180683000Y-109473750D01*
X154380000Y-109473750D01*
X154380000Y-108061691D01*
X180683000Y-108061691D01*
X180683000Y-108902250D01*
X180841750Y-109061000D01*
X181991000Y-109061000D01*
X181991000Y-107711750D01*
X182245000Y-107711750D01*
X182245000Y-109061000D01*
X183394250Y-109061000D01*
X183553000Y-108902250D01*
X183553000Y-108061691D01*
X183456327Y-107828302D01*
X183277699Y-107649673D01*
X183044310Y-107553000D01*
X182403750Y-107553000D01*
X182245000Y-107711750D01*
X181991000Y-107711750D01*
X181832250Y-107553000D01*
X181191690Y-107553000D01*
X180958301Y-107649673D01*
X180779673Y-107828302D01*
X180683000Y-108061691D01*
X154380000Y-108061691D01*
X154380000Y-106998770D01*
X159293560Y-106998770D01*
X159293560Y-107438769D01*
X159390233Y-107672158D01*
X159568861Y-107850787D01*
X159802250Y-107947460D01*
X160242250Y-107947460D01*
X160401000Y-107788710D01*
X160401000Y-106840020D01*
X160655000Y-106840020D01*
X160655000Y-107788710D01*
X160813750Y-107947460D01*
X161253750Y-107947460D01*
X161487139Y-107850787D01*
X161665767Y-107672158D01*
X161762440Y-107438769D01*
X161762440Y-106998770D01*
X161603690Y-106840020D01*
X160655000Y-106840020D01*
X160401000Y-106840020D01*
X159452310Y-106840020D01*
X159293560Y-106998770D01*
X154380000Y-106998770D01*
X154380000Y-104015540D01*
X159281120Y-104015540D01*
X159281120Y-105214420D01*
X159325398Y-105449737D01*
X159464470Y-105665861D01*
X159472659Y-105671456D01*
X159390233Y-105753882D01*
X159293560Y-105987271D01*
X159293560Y-106427270D01*
X159452310Y-106586020D01*
X160401000Y-106586020D01*
X160401000Y-106566020D01*
X160655000Y-106566020D01*
X160655000Y-106586020D01*
X161603690Y-106586020D01*
X161762440Y-106427270D01*
X161762440Y-105987271D01*
X161665767Y-105753882D01*
X161583555Y-105671669D01*
X161723871Y-105466310D01*
X161774880Y-105214420D01*
X161774880Y-104015540D01*
X161730602Y-103780223D01*
X161591530Y-103564099D01*
X161544000Y-103531623D01*
X161544000Y-92642366D01*
X161667317Y-92619162D01*
X161883441Y-92480090D01*
X162028431Y-92267890D01*
X162079440Y-92016000D01*
X162079440Y-90516000D01*
X162035162Y-90280683D01*
X161896090Y-90064559D01*
X161683890Y-89919569D01*
X161670803Y-89916919D01*
X161883441Y-89780090D01*
X162028431Y-89567890D01*
X162077010Y-89328000D01*
X162926370Y-89328000D01*
X164084000Y-90485631D01*
X164084000Y-96520000D01*
X164142004Y-96811605D01*
X164307185Y-97058815D01*
X166212185Y-98963815D01*
X166459395Y-99128996D01*
X166699595Y-99176775D01*
X166270357Y-99606013D01*
X166176337Y-99605931D01*
X165816788Y-99754493D01*
X165541460Y-100029341D01*
X165392270Y-100388630D01*
X165391931Y-100777663D01*
X165540493Y-101137212D01*
X165815341Y-101412540D01*
X166174630Y-101561730D01*
X166563663Y-101562069D01*
X166923212Y-101413507D01*
X167198540Y-101138659D01*
X167347730Y-100779370D01*
X167347813Y-100683817D01*
X167574630Y-100457000D01*
X167780364Y-100457000D01*
X167977110Y-100591431D01*
X168229000Y-100642440D01*
X169779000Y-100642440D01*
X170014317Y-100598162D01*
X170230441Y-100459090D01*
X170375431Y-100246890D01*
X170426440Y-99995000D01*
X170426440Y-99980750D01*
X172994000Y-99980750D01*
X172994000Y-100121310D01*
X173090673Y-100354699D01*
X173269302Y-100533327D01*
X173502691Y-100630000D01*
X174118250Y-100630000D01*
X174277000Y-100471250D01*
X174277000Y-99822000D01*
X174531000Y-99822000D01*
X174531000Y-100471250D01*
X174689750Y-100630000D01*
X175305309Y-100630000D01*
X175538698Y-100533327D01*
X175717327Y-100354699D01*
X175814000Y-100121310D01*
X175814000Y-99980750D01*
X175655250Y-99822000D01*
X174531000Y-99822000D01*
X174277000Y-99822000D01*
X173152750Y-99822000D01*
X172994000Y-99980750D01*
X170426440Y-99980750D01*
X170426440Y-99395000D01*
X170382162Y-99159683D01*
X170318322Y-99060472D01*
X170375431Y-98976890D01*
X170426440Y-98725000D01*
X170426440Y-98125000D01*
X170420198Y-98091829D01*
X171292184Y-98963815D01*
X171509943Y-99109317D01*
X171539395Y-99128996D01*
X171831000Y-99187000D01*
X173027837Y-99187000D01*
X172994000Y-99268690D01*
X172994000Y-99409250D01*
X173152750Y-99568000D01*
X174277000Y-99568000D01*
X174277000Y-99548000D01*
X174531000Y-99548000D01*
X174531000Y-99568000D01*
X175655250Y-99568000D01*
X175814000Y-99409250D01*
X175814000Y-99268690D01*
X175780163Y-99187000D01*
X179451000Y-99187000D01*
X179742605Y-99128996D01*
X179989815Y-98963815D01*
X180067630Y-98886000D01*
X180822818Y-98886000D01*
X180864838Y-99109317D01*
X181003910Y-99325441D01*
X181216110Y-99470431D01*
X181356000Y-99498759D01*
X181356000Y-103540560D01*
X181318000Y-103540560D01*
X181082683Y-103584838D01*
X180866559Y-103723910D01*
X180721569Y-103936110D01*
X180670560Y-104188000D01*
X180670560Y-106188000D01*
X180714838Y-106423317D01*
X180853910Y-106639441D01*
X181066110Y-106784431D01*
X181318000Y-106835440D01*
X182918000Y-106835440D01*
X183153317Y-106791162D01*
X183369441Y-106652090D01*
X183514431Y-106439890D01*
X183565440Y-106188000D01*
X183565440Y-104188000D01*
X183521162Y-103952683D01*
X183382090Y-103736559D01*
X183169890Y-103591569D01*
X182918000Y-103540560D01*
X182880000Y-103540560D01*
X182880000Y-99500366D01*
X183003317Y-99477162D01*
X183219441Y-99338090D01*
X183364431Y-99125890D01*
X183415440Y-98874000D01*
X183415440Y-97374000D01*
X183371162Y-97138683D01*
X183232090Y-96922559D01*
X183019890Y-96777569D01*
X183006803Y-96774919D01*
X183219441Y-96638090D01*
X183364431Y-96425890D01*
X183415440Y-96174000D01*
X183415440Y-94674000D01*
X183371162Y-94438683D01*
X183232090Y-94222559D01*
X183019890Y-94077569D01*
X182880000Y-94049241D01*
X182880000Y-90102366D01*
X183003317Y-90079162D01*
X183219441Y-89940090D01*
X183364431Y-89727890D01*
X183415440Y-89476000D01*
X183415440Y-87976000D01*
X183371162Y-87740683D01*
X183232090Y-87524559D01*
X183019890Y-87379569D01*
X183006803Y-87376919D01*
X183219441Y-87240090D01*
X183364431Y-87027890D01*
X183415440Y-86776000D01*
X183415440Y-85276000D01*
X183371162Y-85040683D01*
X183232090Y-84824559D01*
X183019890Y-84679569D01*
X182768000Y-84628560D01*
X181468000Y-84628560D01*
X181232683Y-84672838D01*
X181016559Y-84811910D01*
X180871569Y-85024110D01*
X180820560Y-85276000D01*
X180820560Y-85344000D01*
X179832000Y-85344000D01*
X179540395Y-85402004D01*
X179293184Y-85567185D01*
X178785185Y-86075185D01*
X178620004Y-86322395D01*
X178562000Y-86614000D01*
X178562000Y-92902369D01*
X176341370Y-95123000D01*
X175627636Y-95123000D01*
X175430890Y-94988569D01*
X175179000Y-94937560D01*
X175166000Y-94937560D01*
X175166000Y-93851028D01*
X175305212Y-93793507D01*
X175580540Y-93518659D01*
X175729730Y-93159370D01*
X175730069Y-92770337D01*
X175581507Y-92410788D01*
X175306659Y-92135460D01*
X174947370Y-91986270D01*
X174558337Y-91985931D01*
X174198788Y-92134493D01*
X173923460Y-92409341D01*
X173774270Y-92768630D01*
X173774147Y-92909432D01*
X173700004Y-93020395D01*
X173642000Y-93312000D01*
X173642000Y-94937560D01*
X173629000Y-94937560D01*
X173393683Y-94981838D01*
X173177559Y-95120910D01*
X173032569Y-95333110D01*
X172981560Y-95585000D01*
X172981560Y-96185000D01*
X173025838Y-96420317D01*
X173089678Y-96519528D01*
X173032569Y-96603110D01*
X172981560Y-96855000D01*
X172981560Y-97455000D01*
X173020698Y-97663000D01*
X172146631Y-97663000D01*
X171099815Y-96616185D01*
X170955864Y-96520000D01*
X170852605Y-96451004D01*
X170561000Y-96393000D01*
X170380163Y-96393000D01*
X170414000Y-96311310D01*
X170414000Y-96170750D01*
X170255250Y-96012000D01*
X169131000Y-96012000D01*
X169131000Y-96032000D01*
X168877000Y-96032000D01*
X168877000Y-96012000D01*
X167752750Y-96012000D01*
X167594000Y-96170750D01*
X167594000Y-96311310D01*
X167683806Y-96528122D01*
X167632569Y-96603110D01*
X167581560Y-96855000D01*
X167581560Y-97455000D01*
X167620698Y-97663000D01*
X167066630Y-97663000D01*
X165608000Y-96204370D01*
X165608000Y-95458690D01*
X167594000Y-95458690D01*
X167594000Y-95599250D01*
X167752750Y-95758000D01*
X168877000Y-95758000D01*
X168877000Y-95108750D01*
X169131000Y-95108750D01*
X169131000Y-95758000D01*
X170255250Y-95758000D01*
X170414000Y-95599250D01*
X170414000Y-95458690D01*
X170317327Y-95225301D01*
X170138698Y-95046673D01*
X169905309Y-94950000D01*
X169289750Y-94950000D01*
X169131000Y-95108750D01*
X168877000Y-95108750D01*
X168718250Y-94950000D01*
X168102691Y-94950000D01*
X167869302Y-95046673D01*
X167690673Y-95225301D01*
X167594000Y-95458690D01*
X165608000Y-95458690D01*
X165608000Y-90170000D01*
X165589931Y-90079162D01*
X165549997Y-89878396D01*
X165384816Y-89631185D01*
X163780815Y-88027185D01*
X163686252Y-87964000D01*
X163533605Y-87862004D01*
X163242000Y-87804000D01*
X162077182Y-87804000D01*
X162035162Y-87580683D01*
X161896090Y-87364559D01*
X161683890Y-87219569D01*
X161432000Y-87168560D01*
X160132000Y-87168560D01*
X159896683Y-87212838D01*
X159680559Y-87351910D01*
X159535569Y-87564110D01*
X159484560Y-87816000D01*
X159484560Y-89316000D01*
X159528838Y-89551317D01*
X159667910Y-89767441D01*
X159880110Y-89912431D01*
X159893197Y-89915081D01*
X159680559Y-90051910D01*
X159535569Y-90264110D01*
X159484560Y-90516000D01*
X159484560Y-92016000D01*
X159528838Y-92251317D01*
X159667910Y-92467441D01*
X159880110Y-92612431D01*
X160020000Y-92640759D01*
X160020000Y-103368100D01*
X159928560Y-103368100D01*
X159693243Y-103412378D01*
X159477119Y-103551450D01*
X159332129Y-103763650D01*
X159281120Y-104015540D01*
X154380000Y-104015540D01*
X154380000Y-83260000D01*
X188520000Y-83260000D01*
X188520000Y-112320000D01*
M02*
