G04 #@! TF.FileFunction,Copper,L2,Bot,Signal*
%FSLAX46Y46*%
G04 Gerber Fmt 4.6, Leading zero omitted, Abs format (unit mm)*
G04 Created by KiCad (PCBNEW 4.0.1-stable) date 2017 February 12, Sunday 16:29:12*
%MOMM*%
G01*
G04 APERTURE LIST*
%ADD10C,0.100000*%
%ADD11R,5.500000X5.500000*%
%ADD12R,4.000000X4.000000*%
%ADD13C,0.685800*%
%ADD14C,0.254000*%
G04 APERTURE END LIST*
D10*
D11*
X183996000Y-99060000D03*
D12*
X171196000Y-99060000D03*
D11*
X158396000Y-99060000D03*
D13*
X171196000Y-103378000D03*
X166370000Y-100584000D03*
X174752000Y-92964000D03*
D14*
X171196000Y-99060000D02*
X171196000Y-103378000D01*
G36*
X188520000Y-112320000D02*
X154380000Y-112320000D01*
X154380000Y-99345750D01*
X155011000Y-99345750D01*
X155011000Y-101936310D01*
X155107673Y-102169699D01*
X155286302Y-102348327D01*
X155519691Y-102445000D01*
X158110250Y-102445000D01*
X158269000Y-102286250D01*
X158269000Y-99187000D01*
X158523000Y-99187000D01*
X158523000Y-102286250D01*
X158681750Y-102445000D01*
X161272309Y-102445000D01*
X161505698Y-102348327D01*
X161684327Y-102169699D01*
X161781000Y-101936310D01*
X161781000Y-99345750D01*
X161622250Y-99187000D01*
X158523000Y-99187000D01*
X158269000Y-99187000D01*
X155169750Y-99187000D01*
X155011000Y-99345750D01*
X154380000Y-99345750D01*
X154380000Y-96183690D01*
X155011000Y-96183690D01*
X155011000Y-98774250D01*
X155169750Y-98933000D01*
X158269000Y-98933000D01*
X158269000Y-95833750D01*
X158523000Y-95833750D01*
X158523000Y-98933000D01*
X161622250Y-98933000D01*
X161781000Y-98774250D01*
X161781000Y-97060000D01*
X168548560Y-97060000D01*
X168548560Y-101060000D01*
X168592838Y-101295317D01*
X168731910Y-101511441D01*
X168944110Y-101656431D01*
X169196000Y-101707440D01*
X170434000Y-101707440D01*
X170434000Y-102756917D01*
X170367460Y-102823341D01*
X170218270Y-103182630D01*
X170217931Y-103571663D01*
X170366493Y-103931212D01*
X170641341Y-104206540D01*
X171000630Y-104355730D01*
X171389663Y-104356069D01*
X171749212Y-104207507D01*
X172024540Y-103932659D01*
X172173730Y-103573370D01*
X172174069Y-103184337D01*
X172025507Y-102824788D01*
X171958000Y-102757163D01*
X171958000Y-101707440D01*
X173196000Y-101707440D01*
X173431317Y-101663162D01*
X173647441Y-101524090D01*
X173792431Y-101311890D01*
X173843440Y-101060000D01*
X173843440Y-99345750D01*
X180611000Y-99345750D01*
X180611000Y-101936310D01*
X180707673Y-102169699D01*
X180886302Y-102348327D01*
X181119691Y-102445000D01*
X183710250Y-102445000D01*
X183869000Y-102286250D01*
X183869000Y-99187000D01*
X184123000Y-99187000D01*
X184123000Y-102286250D01*
X184281750Y-102445000D01*
X186872309Y-102445000D01*
X187105698Y-102348327D01*
X187284327Y-102169699D01*
X187381000Y-101936310D01*
X187381000Y-99345750D01*
X187222250Y-99187000D01*
X184123000Y-99187000D01*
X183869000Y-99187000D01*
X180769750Y-99187000D01*
X180611000Y-99345750D01*
X173843440Y-99345750D01*
X173843440Y-97060000D01*
X173799162Y-96824683D01*
X173660090Y-96608559D01*
X173447890Y-96463569D01*
X173196000Y-96412560D01*
X169196000Y-96412560D01*
X168960683Y-96456838D01*
X168744559Y-96595910D01*
X168599569Y-96808110D01*
X168548560Y-97060000D01*
X161781000Y-97060000D01*
X161781000Y-96183690D01*
X180611000Y-96183690D01*
X180611000Y-98774250D01*
X180769750Y-98933000D01*
X183869000Y-98933000D01*
X183869000Y-95833750D01*
X184123000Y-95833750D01*
X184123000Y-98933000D01*
X187222250Y-98933000D01*
X187381000Y-98774250D01*
X187381000Y-96183690D01*
X187284327Y-95950301D01*
X187105698Y-95771673D01*
X186872309Y-95675000D01*
X184281750Y-95675000D01*
X184123000Y-95833750D01*
X183869000Y-95833750D01*
X183710250Y-95675000D01*
X181119691Y-95675000D01*
X180886302Y-95771673D01*
X180707673Y-95950301D01*
X180611000Y-96183690D01*
X161781000Y-96183690D01*
X161684327Y-95950301D01*
X161505698Y-95771673D01*
X161272309Y-95675000D01*
X158681750Y-95675000D01*
X158523000Y-95833750D01*
X158269000Y-95833750D01*
X158110250Y-95675000D01*
X155519691Y-95675000D01*
X155286302Y-95771673D01*
X155107673Y-95950301D01*
X155011000Y-96183690D01*
X154380000Y-96183690D01*
X154380000Y-83260000D01*
X188520000Y-83260000D01*
X188520000Y-112320000D01*
X188520000Y-112320000D01*
G37*
X188520000Y-112320000D02*
X154380000Y-112320000D01*
X154380000Y-99345750D01*
X155011000Y-99345750D01*
X155011000Y-101936310D01*
X155107673Y-102169699D01*
X155286302Y-102348327D01*
X155519691Y-102445000D01*
X158110250Y-102445000D01*
X158269000Y-102286250D01*
X158269000Y-99187000D01*
X158523000Y-99187000D01*
X158523000Y-102286250D01*
X158681750Y-102445000D01*
X161272309Y-102445000D01*
X161505698Y-102348327D01*
X161684327Y-102169699D01*
X161781000Y-101936310D01*
X161781000Y-99345750D01*
X161622250Y-99187000D01*
X158523000Y-99187000D01*
X158269000Y-99187000D01*
X155169750Y-99187000D01*
X155011000Y-99345750D01*
X154380000Y-99345750D01*
X154380000Y-96183690D01*
X155011000Y-96183690D01*
X155011000Y-98774250D01*
X155169750Y-98933000D01*
X158269000Y-98933000D01*
X158269000Y-95833750D01*
X158523000Y-95833750D01*
X158523000Y-98933000D01*
X161622250Y-98933000D01*
X161781000Y-98774250D01*
X161781000Y-97060000D01*
X168548560Y-97060000D01*
X168548560Y-101060000D01*
X168592838Y-101295317D01*
X168731910Y-101511441D01*
X168944110Y-101656431D01*
X169196000Y-101707440D01*
X170434000Y-101707440D01*
X170434000Y-102756917D01*
X170367460Y-102823341D01*
X170218270Y-103182630D01*
X170217931Y-103571663D01*
X170366493Y-103931212D01*
X170641341Y-104206540D01*
X171000630Y-104355730D01*
X171389663Y-104356069D01*
X171749212Y-104207507D01*
X172024540Y-103932659D01*
X172173730Y-103573370D01*
X172174069Y-103184337D01*
X172025507Y-102824788D01*
X171958000Y-102757163D01*
X171958000Y-101707440D01*
X173196000Y-101707440D01*
X173431317Y-101663162D01*
X173647441Y-101524090D01*
X173792431Y-101311890D01*
X173843440Y-101060000D01*
X173843440Y-99345750D01*
X180611000Y-99345750D01*
X180611000Y-101936310D01*
X180707673Y-102169699D01*
X180886302Y-102348327D01*
X181119691Y-102445000D01*
X183710250Y-102445000D01*
X183869000Y-102286250D01*
X183869000Y-99187000D01*
X184123000Y-99187000D01*
X184123000Y-102286250D01*
X184281750Y-102445000D01*
X186872309Y-102445000D01*
X187105698Y-102348327D01*
X187284327Y-102169699D01*
X187381000Y-101936310D01*
X187381000Y-99345750D01*
X187222250Y-99187000D01*
X184123000Y-99187000D01*
X183869000Y-99187000D01*
X180769750Y-99187000D01*
X180611000Y-99345750D01*
X173843440Y-99345750D01*
X173843440Y-97060000D01*
X173799162Y-96824683D01*
X173660090Y-96608559D01*
X173447890Y-96463569D01*
X173196000Y-96412560D01*
X169196000Y-96412560D01*
X168960683Y-96456838D01*
X168744559Y-96595910D01*
X168599569Y-96808110D01*
X168548560Y-97060000D01*
X161781000Y-97060000D01*
X161781000Y-96183690D01*
X180611000Y-96183690D01*
X180611000Y-98774250D01*
X180769750Y-98933000D01*
X183869000Y-98933000D01*
X183869000Y-95833750D01*
X184123000Y-95833750D01*
X184123000Y-98933000D01*
X187222250Y-98933000D01*
X187381000Y-98774250D01*
X187381000Y-96183690D01*
X187284327Y-95950301D01*
X187105698Y-95771673D01*
X186872309Y-95675000D01*
X184281750Y-95675000D01*
X184123000Y-95833750D01*
X183869000Y-95833750D01*
X183710250Y-95675000D01*
X181119691Y-95675000D01*
X180886302Y-95771673D01*
X180707673Y-95950301D01*
X180611000Y-96183690D01*
X161781000Y-96183690D01*
X161684327Y-95950301D01*
X161505698Y-95771673D01*
X161272309Y-95675000D01*
X158681750Y-95675000D01*
X158523000Y-95833750D01*
X158269000Y-95833750D01*
X158110250Y-95675000D01*
X155519691Y-95675000D01*
X155286302Y-95771673D01*
X155107673Y-95950301D01*
X155011000Y-96183690D01*
X154380000Y-96183690D01*
X154380000Y-83260000D01*
X188520000Y-83260000D01*
X188520000Y-112320000D01*
M02*
